<svg id="visual" viewBox="0 0 900 600" width="900" height="600" xmlns="http://www.w3.org/2000/svg" xmlns:xlink="http://www.w3.org/1999/xlink" version="1.1"><path d="M0 157L82 157L82 127L164 127L164 73L245 73L245 157L327 157L327 115L409 115L409 133L491 133L491 85L573 85L573 79L655 79L655 157L736 157L736 115L818 115L818 121L900 121L900 115L900 0L900 0L818 0L818 0L736 0L736 0L655 0L655 0L573 0L573 0L491 0L491 0L409 0L409 0L327 0L327 0L245 0L245 0L164 0L164 0L82 0L82 0L0 0Z" fill="#b0235f"></path><path d="M0 235L82 235L82 169L164 169L164 163L245 163L245 229L327 229L327 193L409 193L409 199L491 199L491 181L573 181L573 187L655 187L655 235L736 235L736 157L818 157L818 241L900 241L900 223L900 113L900 119L818 119L818 113L736 113L736 155L655 155L655 77L573 77L573 83L491 83L491 131L409 131L409 113L327 113L327 155L245 155L245 71L164 71L164 125L82 125L82 155L0 155Z" fill="#c53762"></path><path d="M0 307L82 307L82 217L164 217L164 205L245 205L245 319L327 319L327 247L409 247L409 271L491 271L491 247L573 247L573 247L655 247L655 325L736 325L736 247L818 247L818 307L900 307L900 283L900 221L900 239L818 239L818 155L736 155L736 233L655 233L655 185L573 185L573 179L491 179L491 197L409 197L409 191L327 191L327 227L245 227L245 161L164 161L164 167L82 167L82 233L0 233Z" fill="#d84a64"></path><path d="M0 391L82 391L82 409L164 409L164 367L245 367L245 433L327 433L327 499L409 499L409 397L491 397L491 391L573 391L573 475L655 475L655 493L736 493L736 463L818 463L818 433L900 433L900 481L900 281L900 305L818 305L818 245L736 245L736 323L655 323L655 245L573 245L573 245L491 245L491 269L409 269L409 245L327 245L327 317L245 317L245 203L164 203L164 215L82 215L82 305L0 305Z" fill="#ea5e66"></path><path d="M0 601L82 601L82 601L164 601L164 601L245 601L245 601L327 601L327 601L409 601L409 601L491 601L491 601L573 601L573 601L655 601L655 601L736 601L736 601L818 601L818 601L900 601L900 601L900 479L900 431L818 431L818 461L736 461L736 491L655 491L655 473L573 473L573 389L491 389L491 395L409 395L409 497L327 497L327 431L245 431L245 365L164 365L164 407L82 407L82 389L0 389Z" fill="#fa7268"></path></svg>